<svg width="2611" height="1745" viewBox="0 0 2611 1745" fill="none" xmlns="http://www.w3.org/2000/svg">
<g id="illustration">
<rect width="2611" height="1058" fill="currentColor"/>
<rect id="ground" y="1059" width="2611" height="686" fill="currentColor"/>
<g id="city">
<path id="city-background" d="M409.5 550.5V1058.5H2049.5V805.5L2024.5 769.5L1996.5 811.5H1881.5V647H1773.5V577.5H1670.5V757.5H1648.5V657.5L1615 636L1582.5 657.5V716H1527V493.5H1471.5V605H1429V532H1309.5V620H1221V731.5H1152V676H1132.5V743.5H1105V469H917V537H849.5V314L774 287.5L742.5 305H717.5L696.5 284L675.5 305V355.5H657.5V550.5H547.5L476 512.5L409.5 550.5Z" fill="currentColor"/>
<path id="city-foreground" d="M2153.5 1058.5V1015H1992.5V854.5L1926 803L1869.5 845.5H1810.5V826H1765.5V864.624H1596.5V914L1579 912L1567 893.5L1553 913L1513 881.5L1473 914V936H1403V882H1236.5V802.5H1031.5V769H990.5V807.5H909.5V850.5H874.5V911.5H819.5L748.5 869L589.5 953.747V983H541V956H475V1015H306V1058.5H2153.5Z" fill="currentColor"/>
</g>
<g id="clouds">
<path id="cloud-1" d="M795 306H303C303 306 324.5 185.5 393 185.5C461.5 185.5 478.5 239.5 543 239.5C607.5 239.5 619.5 146 678 146C752.5 146 795 306 795 306Z" fill="currentColor"/>
<path id="cloud-2" d="M1537.5 410.5H927.5C927.5 410.5 969 305.5 1039.5 305.5C1094 305.5 1092 345 1134.5 345C1202.5 345 1234.5 201.5 1298.5 201.5C1332 201.5 1345.05 240.048 1387.5 263.5C1412.91 277.536 1439 273.5 1479.5 304.5C1520 335.5 1537.5 410.5 1537.5 410.5Z" fill="currentColor"/>
<path id="cloud-3" d="M1784.5 333.5H1377.5C1377.5 333.5 1408.5 205 1455.5 205C1488 205 1495 272 1521.5 272C1543 272 1553.5 231 1587.5 231C1621.5 231 1631 268 1706 268C1781 268 1784.5 333.5 1784.5 333.5Z" fill="currentColor"/>
</g>
<g id="trees">
<g id="tree-right">
<path id="tree-shadow" d="M2168 1573C2168 1591 2050.7 1604 1906 1604C1761.3 1604 1644 1591 1644 1573C1644 1555 1761.3 1542 1906 1542C2050.7 1542 2168 1555 2168 1573Z" fill="currentColor"/>
<path id="tree-trunk" d="M1859.5 483H1940.5L1954.5 1110.5L1991.5 1086.5L1998.5 1098.5L1955.5 1146L1968 1578H1832L1842.5 1244L1791.5 1178.5L1799.5 1166.5L1843.5 1200.5L1859.5 483Z" fill="currentColor"/>
<path id="tree-crown" d="M1540.5 421C1473.5 421 1378 462.5 1378 588C1378 713.5 1478 780.5 1577 780.5C1701 780.5 1748 718.5 1836.5 718.5C1925 718.5 2022 803 2103.5 803C2172.5 803 2222.5 744 2222.5 695.5C2222.5 666 2237.3 596.5 2252.5 574.5C2287.5 523.853 2352 486.5 2352 402.5C2352 328.5 2285 251 2176 251C2067 251 2036 320.5 1989.5 319C1926.5 319 1872.5 234 1778.5 234C1610 234 1668.5 421 1540.5 421Z" fill="currentColor"/>
</g>
<g id="tree-left">
<path id="tree-shadow_2" d="M808 1574C808 1592 686.669 1605 537 1605C387.331 1605 266 1592 266 1574C266 1556 387.331 1543 537 1543C686.669 1543 808 1556 808 1574Z" fill="currentColor"/>
<path id="tree-trunk_2" d="M536 651H556L564 931L591.5 913.5L597.5 922L564.355 955.865L584.5 1570H507.5L524.5 1022.5L487 977.5L493.5 969.5L525.5 993.5L536 651Z" fill="currentColor"/>
<g id="bush">
<path id="leaf-background" d="M732.5 1155C732.5 1142.5 722 1126.5 701 1126.5C654.5 1126.5 636 1243 617.5 1243C602 1243 601 1191.5 586.5 1191.5C555 1191.5 493.5 1417 493.5 1458L561 1496.5C604.5 1496.5 724 1348.5 724 1293.5C724 1286.5 721 1283 713.5 1283C706 1283 684 1285 680 1285C676 1285 672 1285 672 1279C672 1258 732.5 1194 732.5 1155Z" fill="currentColor"/>
<g id="grass-leafs">
<path id="grass-left" d="M477.5 1539H459.5C459.5 1510 393.96 1386.6 363 1337C285.237 1212.43 205.5 1145.5 209 1142C212.5 1138.5 331.5 1208.5 402.5 1358.5C473.5 1508.5 477.5 1518 477.5 1539Z" fill="currentColor"/>
<path id="grass-right" d="M761 1244.5C768.5 1244.5 786 1246.5 786 1249.5C786 1255.5 758.5 1250.5 700 1309C618 1391 587 1539 587 1539H563.5C563.5 1520 648 1244.5 761 1244.5Z" fill="currentColor"/>
</g>
<g id="leaf-foreground">
<path id="leaf-foreground_2" d="M506.5 1190.5C506.5 1190.5 460.5 1109 408 1109C377.5 1109 338.5 1138.5 338.5 1210.5C338.5 1221 340.5 1238.5 342 1250L380.5 1270L338 1279C342 1303.5 353.5 1368 379.5 1408.5L435.5 1398.5L389.5 1431.5C423 1517.5 475.5 1567.5 576 1567.5C625 1567.5 648 1489.5 648 1454C648 1418.5 633 1374.5 625 1358.5L572 1366.5L611 1336.5C596 1295.5 545 1224.5 526 1207L486.5 1215.5L506.5 1190.5Z" fill="currentColor"/>
<path id="leaf-foreground-vein" d="M401.5 1159.5L440.126 1244.5M537.374 1458.5L582.5 1412.5M537.374 1458.5L502.61 1382M537.374 1458.5L582.5 1558.5M502.61 1382L440.5 1364M502.61 1382L475.799 1323M475.799 1323L514 1256M475.799 1323L440.126 1244.5M440.126 1244.5L385.5 1219.5" stroke="currentColor" stroke-width="4"/>
</g>
<path id="grass-bottom" d="M638.5 1500.5C680.5 1500.5 737 1573.5 737 1573.5H363C363 1573.5 379.5 1472.5 450 1472.5C499.5 1472.5 523 1512 578 1512C601 1512 615.5 1500.5 638.5 1500.5Z" fill="currentColor"/>
</g>
<path id="tree-crown_2" d="M288 553C245.5 595.5 134 574 134 645.5C134 734.5 274.5 694 315 734.5C323.5 743 315 801.5 362.5 851.5C369.5 858.5 399.5 888.5 455.5 888.5C523 888.5 546 845.5 593.5 845.5C641.5 845.5 699.5 886 747 886C773 886 819.5 861.5 819.5 822.5C819.5 775 757 726 757 674.5C757 618 840.5 615.5 840.5 520.5C840.5 492.5 819.5 425 747.5 425C665 425 628.5 495 593 495C531 495 492 438.5 414 438.5C336 438.5 319.5 521.5 288 553Z" fill="currentColor"/>
</g>
</g>
<g id="squirrel">
<path id="squirrel-shadow" d="M1491 1375.5C1491 1393 1385.34 1401 1255 1401C1124.66 1401 1019 1393 1019 1375.5C1019 1358 1124.66 1350 1255 1350C1385.34 1350 1491 1358 1491 1375.5Z" fill="currentColor"/>
<g id="squirrel-tail">
<path id="tail" d="M1541.5 946C1541.5 893.5 1498 860.5 1449 860.5C1384.5 860.5 1348.5 912 1348.5 962C1348.5 1012 1383.5 1070.5 1383.5 1118.5C1383.5 1166.5 1362.5 1241 1315.5 1288L1324.5 1320C1401 1320 1540 1251 1540 1161.5C1540 1120 1516.5 1080 1516.5 1043C1516.5 1006 1541.5 992.5 1541.5 946Z" fill="currentColor"/>
<path id="tail-decorations" d="M1420.5 886C1430.74 902.213 1434.54 914.473 1436.5 941M1395.5 920C1404.64 935.794 1408.15 945.864 1411.5 966M1382.5 973C1393.5 986.004 1398.16 995.255 1404 1015M1433 967.5C1438.85 985.707 1440.92 997.378 1441 1022.5M1466 973C1465.17 948.17 1466.7 934.763 1472 911.5M1502 904.5C1510.59 923.878 1511.29 936.086 1506 960M1485.5 982.5C1483.36 1011.41 1484.47 1023.47 1489.5 1039.5M1434.5 1055.5C1440.75 1074.06 1441.72 1086.05 1441 1109M1388.5 1034.5C1403.62 1055.8 1409.42 1066.82 1414 1084.5M1474.5 1061C1475.23 1077.42 1476.62 1085.26 1480 1098M1466 1117C1465.84 1133.4 1463.66 1141.91 1456.5 1156M1506 1124C1510.73 1134.98 1511.89 1143.83 1511.5 1164M1483 1166.5C1477.78 1179.63 1473.98 1187.08 1466 1200.5M1466 1245.5C1479.01 1235.48 1485.86 1229.11 1497 1216" stroke="currentColor" stroke-width="4"/>
</g>
<g id="squirrel-body-group">
<g id="mustache-back">
<path id="mustache" d="M976.5 1094.5C988.175 1088.91 994.937 1087.52 1007.5 1089" stroke="currentColor" stroke-width="4"/>
<path id="mustache_2" d="M973 1070.5C988.705 1072.18 997.294 1078.36 1008 1086.5" stroke="currentColor" stroke-width="4"/>
<path id="mustache_3" d="M977 1052.5C990 1055.5 998.5 1065 1008 1083" stroke="currentColor" stroke-width="4"/>
</g>
<path id="squirrel-body" d="M1441 1220C1441 1311 1383.5 1376 1263 1376L1176 1221C1116 1221 1085.5 1149 1074.5 1138C1055.5 1119 1041.15 1120.53 1026 1114C1010.72 1107.41 999.5 1097.57 999.5 1081.5C999.5 1053 1037 990.5 1090 990.5C1119.5 990.5 1152 1022 1158.5 1028.5C1184.5 1054.5 1230.58 1052.97 1277.5 1060.5C1318.53 1067.08 1363.5 1084.5 1389 1110C1399.11 1119.89 1441 1154.5 1441 1220Z" fill="currentColor"/>
<g id="squirrel-nose">
<mask id="mask0_1:8" style="mask-type:alpha" maskUnits="userSpaceOnUse" x="999" y="990" width="442" height="386">
<path id="squirrel-body_2" d="M1441 1220C1441 1311 1383.5 1376 1263 1376L1176 1221C1116 1221 1085.5 1149 1074.5 1138C1055.5 1119 1041.15 1120.53 1026 1114C1010.72 1107.41 999.5 1097.57 999.5 1081.5C999.5 1053 1037 990.5 1090 990.5C1119.5 990.5 1152 1022 1158.5 1028.5C1184.5 1054.5 1230.58 1052.97 1277.5 1060.5C1318.53 1067.08 1363.5 1084.5 1389 1110C1399.11 1119.89 1441 1154.5 1441 1220Z" fill="currentColor"/>
</mask>
<g mask="url(#mask0_1:8)">
<path id="nose" d="M994 1113.5C994 1113.5 1013.5 1108 1013.5 1092C1013.5 1076 985 1079.5 985 1079.5L994 1113.5Z" fill="currentColor"/>
</g>
</g>
<g id="mustache-front">
<path id="mustache_4" d="M1022 1090.5C1039 1085 1062 1086 1075 1095" stroke="currentColor" stroke-width="4"/>
<path id="mustache_5" d="M1024.5 1080.5C1043 1062 1066 1071.5 1067.5 1073" stroke="currentColor" stroke-width="4"/>
<path id="mustache_6" d="M1032.5 1099.5C1044.49 1099.3 1051.28 1100.39 1064 1113.5" stroke="currentColor" stroke-width="4"/>
</g>
<g id="squirrel-eye">
<path id="eye-pupil" d="M1063 1034C1063 1037.59 1059.5 1040.5 1056.5 1040.5C1053 1040.5 1050.5 1037 1050.5 1034C1050.5 1030.5 1053.5 1027 1056.5 1027C1059.5 1027 1063 1029.5 1063 1034Z" fill="currentColor"/>
<path id="eye-shine" d="M1056 1035C1056 1036.1 1055.33 1037 1054.5 1037C1053.67 1037 1053 1036.1 1053 1035C1053 1033.9 1053.67 1033 1054.5 1033C1055.33 1033 1056 1033.9 1056 1035Z" fill="currentColor"/>
</g>
</g>
<path id="squirrel-leg" d="M1149.5 1267.5C1149.5 1254.5 1161.5 1099 1285 1099C1340 1099 1441 1118 1441 1220.5C1441 1323 1368 1375.5 1263 1375.5C1158 1375.5 1149.5 1280.5 1149.5 1267.5Z" fill="currentColor"/>
<path id="squirrel-foot" d="M1255 1375.5H1132.5C1132.5 1369 1132.5 1343.5 1164.5 1343.5C1202.5 1343.5 1255 1375.5 1255 1375.5Z" fill="currentColor"/>
<g id="acorn">
<path id="acorn-body" d="M1056 1178.5C1056 1233.5 1019.5 1230.5 1018 1230.5C996 1230.5 980.5 1205 980.5 1191.5C980.5 1178 997.805 1167.46 1014.5 1164.5C1031.34 1161.52 1056 1158 1056 1178.5Z" fill="currentColor"/>
<g id="acorn-top-part">
<path id="acorn-top" d="M968.5 1186C968.5 1174.5 990.5 1149 1030 1149C1039.5 1149 1058 1151 1058 1166.5C1058 1180.5 1012 1200 987.5 1200C977.5 1200 968.5 1196 968.5 1186Z" fill="currentColor"/>
<path id="acorn-stick" d="M1014.5 1126C1025 1126 1030 1136 1029.5 1136.5C1029 1137 1020.5 1132 1014.5 1132C1008.5 1132 1006 1137 1006 1144C1006 1151 1009.5 1159.5 1009.5 1159.5H1003.5C1003.5 1159.5 1000 1148.5 1000 1141.5C1000 1134.5 1004 1126 1014.5 1126Z" fill="currentColor"/>
</g>
</g>
<path id="squirrel-arm" d="M1188 1142C1188 1124.5 1173 1109 1153.5 1109C1124.5 1109 1109 1137 1094 1152C1078 1168 1033.5 1163 1033.5 1188.5C1033.5 1196.5 1041.5 1202 1059.5 1202C1080.5 1202 1106.54 1193.7 1141.5 1180.5L1141.65 1180.44C1160.16 1173.46 1188 1162.94 1188 1142Z" fill="currentColor"/>
<g id="squirrel-ear">
<path id="squirrel-ear_2" d="M1092.5 1010.5L1122.5 1017.5C1122.5 1017.5 1133.5 987 1133.5 958C1133.5 936 1126 924 1117 924C1106 924 1088 942.5 1088 978C1088 993 1092.5 1010.5 1092.5 1010.5Z" fill="currentColor"/>
<path id="squirrel-ear-decoration" d="M1117.5 946C1120.24 959.025 1120.12 966.833 1117.5 981.5" stroke="currentColor" stroke-width="4"/>
</g>
</g>
</g>
</svg>
